<svg
  width="56px"
  height="auto"
  viewBox="0 0 2030 2068"
  version="1.1"
  xmlns="http://www.w3.org/2000/svg"
>
  <style>
    .stroke {
      stroke: #000;
    }
    .fill {
      fill: #000;
    }
    @media (prefers-color-scheme: dark) {
      .stroke {
        stroke: #fff;
      }
      .fill {
        fill: #fff;
      }
    }
  </style>
  <path
    class="fill"
    d="M2014.5,395.25c-7.208,-2.583 -14.625,-3.875 -22.375,-4.125c-13,-0.458 -25.833,1.292 -38.75,1.958c-10.917,0.542 -21.833,1.334 -32.75,2.292c-20.458,1.833 -40.875,3.958 -61.333,5.792c-9.917,0.916 -19.875,1.041 -29.75,2.291c-25.625,3.209 -51.417,4.959 -77.125,7.209c-18.834,1.625 -37.625,3.625 -56.5,4.875c-27.084,1.791 -54.042,5.166 -81.125,7.5c-17.5,1.5 -34.917,4.041 -52.5,3.875c-6,-0 -12,0.375 -18,-0c-17.959,-1.292 -33.667,-7.792 -45.459,-21.709c-10,-11.791 -16.333,-25.708 -21.291,-40.291c-2.75,-8.125 -1.334,-15.584 2.666,-22.917c3.834,-6.958 7.709,-14 10.917,-21.25c12.875,-29.167 15.708,-59.417 9.5,-90.625c-2.542,-12.792 2.083,-19.583 14.5,-22.625c6.125,-1.5 12.375,-2.625 18.292,-4.667c8.75,-3.083 9.458,-8.625 2.291,-14.541c-1.291,-1.042 -2.666,-2.125 -4.166,-2.709c-6.792,-2.666 -13.542,-5.166 -20.875,-6.333c-17.709,-2.917 -35.292,-6.292 -50.125,-17.625c-4.792,-3.667 -10.417,-6.458 -16.167,-7.542c-13.708,-2.666 -23,-11.541 -31.75,-21.166c-23.792,-26.209 -43.583,-55.209 -60.5,-86.209c-7.167,-13.125 -14.75,-26.041 -26.083,-36.291c-13.417,-12.125 -26.959,-14.25 -42.209,-3.334c-8.5,6.084 -15.291,13.792 -21.791,21.834c-19.667,24.208 -38,49.5 -60.542,71.375c-18.583,18.125 -38.458,33.583 -63.375,42.041c-8.25,2.792 -16.417,4.917 -25.167,5.209c-10.916,0.416 -21.875,1.166 -32.791,2.208c-3.584,0.333 -7.042,1.625 -10.792,0.917c-14.208,-2.542 -28.583,-1.375 -42.833,-0.917c-22.5,0.708 -44.917,4 -67.542,3.375c-6.708,-0.167 -13.125,-2.125 -19.792,-1.708c-11.583,0.75 -23.208,1.041 -34.791,1.916c-5.959,0.417 -11.875,0.25 -17.875,0.875c-12.292,1.25 -24,4.875 -36.042,7.042c-26.792,4.833 -53.208,10.875 -78.958,19.75c-25.542,8.792 -50,19.792 -72.709,34.458c-32,20.667 -60.208,45.709 -86.291,73.5c-26.834,28.667 -55.625,55.292 -87.334,78.667c-26.791,19.708 -53,40.083 -78.75,61.167c-24.916,20.416 -48.5,42.333 -72.5,63.833c-17.916,16.042 -37.791,29.125 -59.625,39.25c-44.708,20.708 -91.291,36.083 -139.25,47.292c-41.666,9.708 -83.916,16.041 -125.958,23.708c-13.042,2.375 -26.125,4.875 -37.75,11.792c-13.125,7.791 -15.125,20.541 -4.75,31.583c3.583,3.875 7.542,7.417 11.958,10.458c22.584,15.417 47.417,26.792 71.209,40c33.791,18.75 66.333,39.167 94.75,65.667c22.666,21.083 39.75,45.292 44.291,77c2.167,15.417 5.084,30.75 8.5,46c10.25,45.417 26.459,89.042 40.417,133.333c8.875,28.209 21.75,54.959 34.583,81.584c15.042,31.125 32.209,60.958 51.209,90c29.5,45.083 60.5,88.958 95.166,130.208c17.042,20.25 24.667,42.958 22.209,69.833c-2.25,25.042 -7.542,49.209 -15.542,72.75c-13.292,39.042 -30.458,76.5 -49.208,113.209c-20.209,39.625 -41.25,78.875 -62,118.291c-25.542,48.5 -51.25,96.959 -76.667,145.5c-24.5,46.792 -49.833,93.167 -73.333,140.459c-9.125,18.458 -18.5,36.791 -25.084,56.333c-1.666,5.042 -3.041,10.167 -2.958,15.583c0.083,12.5 6.792,17.542 18.625,13.875c6.083,-1.916 11.625,-4.875 16.875,-8.375c17.208,-11.416 33.375,-24.208 48.958,-37.666c19.584,-16.959 38.917,-34.167 58.417,-51.209c39.25,-34.333 78.542,-68.583 117.75,-102.958c20.25,-17.75 40.292,-35.667 60.5,-53.417c28.958,-25.416 58.042,-50.625 86.958,-76.041c24.459,-21.459 49.084,-42.75 74.417,-63.209c25.333,-20.5 51.458,-39.916 78.625,-57.958c32.5,-21.625 66.708,-39.75 103.792,-52.042c13.791,-4.583 28.25,-7.375 43,-7.208c18.958,0.208 37.875,-0.083 56.791,1.75c11.5,1.125 23.167,-0.458 34.792,-0.958c22.542,-0.875 45,-2.375 67.5,-4.084c25.167,-1.916 50.167,-5.208 75,-9.041c39.917,-6.167 79.542,-14.125 118.833,-23.625c61.917,-14.959 123.084,-32.292 182.292,-55.959c40.583,-16.208 79.125,-36.083 112.667,-64.666c19.833,-16.917 42.916,-26.292 69.041,-27.167c25.667,-0.833 51.042,2.25 76.084,7.375c34.833,7.167 68.583,18.167 102.375,28.958c12.75,4.084 25.625,6.167 39.083,6.25c14.042,0.042 24.333,-11.708 24.958,-23.458c0.75,-13.5 -1.666,-26.375 -5.458,-39.125c-6.25,-21 -12.833,-41.917 -18.542,-63.042c-8.708,-32.333 -16.333,-64.875 -19.166,-98.5c-1.667,-20.041 -1.417,-40.041 1.916,-59.5c3.584,-21 13.709,-40.083 27,-57.041c5.5,-7.084 11.75,-13.542 17.459,-20.5c6.291,-7.667 13.166,-14.959 17.708,-23.959c1.625,-3.291 3.083,-6.583 2.958,-10.416c-0.208,-6.75 -3.958,-10 -10.291,-8.209c-4.417,1.25 -8.584,3.167 -12.459,5.917c-10.875,7.667 -21.791,15.375 -34.125,20.542c-18.416,7.708 -35.916,7.333 -52.625,-5.334c-17.833,-13.541 -31.541,-30.333 -42.375,-49.708c-24.416,-43.75 -41.083,-90.667 -55.625,-138.333c-3.083,-10.042 -5.291,-20.667 -4.25,-31.459c1.834,-18.458 9.667,-34.291 21.584,-48.25c11.916,-13.958 25.625,-26.166 38.916,-38.708c23.417,-22.167 47.25,-43.875 70.834,-65.875c17.5,-16.375 34.75,-32.958 52.208,-49.333c25.5,-23.875 51.042,-47.625 76.583,-71.417c11.667,-10.875 23.292,-21.833 35.084,-32.542c21.958,-19.916 43.666,-40.083 63.458,-62.125c5.75,-6.416 11.333,-13.041 13.917,-21.625c3.916,-12.958 -0.917,-23.208 -13.667,-27.791l-0,-0.042Zm-1570.67,1363c-0.583,2.208 -1.708,4.375 -3.041,6.208c-11.042,14.917 -20.292,31.084 -32.834,44.959c-21.833,24.166 -43.583,48.416 -67.083,71c-5.75,5.5 -11.833,10.708 -17.917,15.833c-2,1.667 -4.416,3.042 -6.833,4c-4.167,1.708 -6.583,-0.375 -5.333,-4.792c1.166,-4.125 2.875,-8.166 4.916,-11.916c10.084,-18.375 21.584,-35.834 33.084,-53.334c13.166,-20.041 28.875,-38.041 43.583,-56.875c8.542,-10.958 19.792,-18.625 30.75,-26.625c2.625,-1.916 5.875,-3.291 8.667,-2.666c10.166,-0 14.291,5.083 12.041,14.208Zm52.417,-1285.33c6.458,-17.5 18.083,-31.542 29.208,-45.959c10.334,-13.416 21.459,-26.208 28.959,-41.666c3.333,-6.834 8.416,-12.834 15.5,-16.5c10.833,-5.584 18.375,-15.209 27.791,-22.5c16.875,-13.125 35.459,-23.5 54.334,-33.125c13,-6.625 25.875,-13.542 38.875,-20.125c24.625,-12.417 49.125,-25.625 75.666,-32.875c45.042,-12.25 89.667,-26.25 135.75,-34.292c13.792,-2.417 27.792,-1.875 41.584,-4c30.958,-4.75 62.25,-4 93.458,-4.458c13.125,-0.209 25.75,3.541 37.833,7.625c14.709,4.958 21.459,17.083 22.292,32.333c1.083,19.208 -3.042,37.708 -8.583,55.875c-4.667,15.25 -10.959,29.917 -17.792,44.333c-3.5,7.334 -8.958,13.084 -15.458,17.959c-25.542,19.125 -51.459,37.791 -76.125,58.083c-11.25,9.25 -22.542,18.583 -33.292,28.458c-19.167,17.667 -42.125,27.709 -67.167,32.667c-25,5 -50.041,9.667 -74.958,15.125c-14.75,3.25 -30.083,4.5 -45.333,5.5c-17.167,1.167 -34.25,3.833 -51.375,5.375c-30.084,2.667 -60.25,4.875 -90.5,3.875c-13.625,-0 -27.334,0.792 -40.917,-0.208c-17.833,-1.334 -35.5,-4.417 -52.708,-9.625c-10.334,-3.125 -17.917,-9.917 -24.167,-18.375c-5.333,-7.25 -6,-14.875 -2.875,-23.5Zm138.833,674.958c-13.875,19.833 -28,39.583 -48.583,53.417c-1.667,1.125 -3.292,2.333 -5,3.291c-22.417,12.542 -37.25,11.25 -55,-9.875c-22.667,-26.916 -42.583,-55.875 -63.958,-83.791c-13.084,-17.125 -28.167,-32.625 -40.125,-50.709c-19.625,-29.583 -41.042,-58.125 -56.209,-90.416c-8.875,-18.834 -20.666,-36.375 -24.791,-57.334c-1.542,-7.833 -3.542,-15.5 -3,-23.208c-3.417,-24.083 19.125,-34.5 36.666,-35.792c18.667,-1.375 37.084,1 55.167,5.75c51.792,13.667 100.792,34.75 149.708,56.042c27.959,12.208 55.625,25 83.375,37.708c8.417,3.875 16.625,8.25 23.917,14.209c19,15.625 23.5,36.041 16.208,58.291c-3.5,10.667 -8.333,21.042 -13.708,30.917c-16.958,31.25 -34.25,62.333 -54.667,91.5Zm776.625,195.917c-9.333,7 -20.333,11.208 -31,15.75c-37.125,15.791 -76.125,24.458 -115.791,31c-32.042,5.291 -64.292,8.291 -96.5,11.916c-18.375,2.084 -36.792,3.75 -54.875,8.417c-10.792,2.792 -22.209,3.917 -31.959,2.958c-5.916,0 -10.25,0.084 -14.583,-0.041c-18.667,-0.459 -31.292,-18.167 -25.875,-34.042c4.417,-13.125 10.792,-24.917 17.917,-36.5c10.916,-17.667 25.166,-32.542 39.166,-47.625c19.459,-20.958 39.584,-41.333 60.709,-60.667c8.291,-7.583 16.625,-15.125 26.416,-21c21.75,-13.083 44.459,-15.875 68.625,-8.125c14.25,4.542 27.959,10.292 41.5,16.584c7.25,3.416 11.459,8.708 12.875,16.5c1.375,7.5 2.209,15.125 5.084,22.291c9.333,23.042 26.041,37.334 50.791,40.917c7.875,1.125 15.709,-1.708 23.167,-4.583c3.417,-1.292 6.792,-2.667 10.208,-3.917c7.959,-3 15.042,-0.667 19.459,5.833c11.375,16.75 11.583,31.709 -5.334,44.334Zm204.917,-193.209c-8.042,6.875 -17.167,11.792 -27.333,13.667c-41.917,7.708 -79.042,26.458 -114.75,48.583c-29.084,18.042 -58,36.375 -87,54.542c-2.792,1.75 -5.667,3.458 -8.667,4.875c-12.5,5.792 -21,3.667 -30.958,-5.125c-11.542,-10.208 -14.584,-23.5 -11.5,-38.125c5.083,-24.333 10.666,-48.583 16,-72.875c6.208,-28.292 10.708,-56.75 10.666,-85.833c0,-16.875 -4.5,-31.834 -14.75,-45.417c-23.25,-30.75 -46.125,-61.792 -69.125,-92.708c-12.791,-17.209 -29.375,-30.709 -44.875,-45.209c-11.916,-11.083 -24.041,-21.958 -36.458,-32.5c-9.417,-8.041 -20.167,-13.458 -32.542,-16.291c-13.333,-3.084 -24.416,0.666 -34.291,8.666c-14.792,12 -26.959,26.625 -39.042,41.209c-5.875,7.125 -8.083,16.041 -9.583,24.875c-2.959,17.666 -5.75,35.416 -4.792,52.333c-0.917,34.5 6.417,66.375 17.208,97.667c7.334,21.333 15,42.541 17.834,65.125c2.833,22.875 -0.459,44.375 -13,64.041c-6.667,10.459 -16.625,17.042 -27.334,22.542c-22.541,11.625 -46.833,18.417 -70.958,25.792c-56.125,17.208 -111.625,36 -164.708,61.5c-24.834,11.958 -48.584,25.916 -72.542,39.458c-13.917,7.875 -28.167,14.958 -44.125,17.75c-16.167,2.875 -36.458,-13.917 -36.542,-30.208c0,-5.709 2.459,-10.292 5.625,-14.625c7.459,-10.167 15.167,-20.167 22.667,-30.292c44.167,-59.917 88.167,-120 132.542,-179.75c33.125,-44.583 66.916,-88.625 100.041,-133.125c25.625,-34.375 51,-68.958 73.375,-105.583c7.25,-11.917 14.209,-24 19.959,-36.75c10.416,-23 7.833,-44.584 -6,-65.25c-12.042,-18 -25.709,-34.5 -42.25,-48.75c-21.167,-18.292 -39.792,-39.125 -58.042,-60.334c-10.875,-12.708 -23.167,-23.791 -37.542,-32.458c-15.041,-9.042 -29.958,-10 -44.541,1.042c-0.542,0.375 -1.125,0.708 -1.667,1.083c-7.458,5.458 -15.583,10.458 -24.708,5.625c-10.292,-5.458 -15.875,-14.833 -16.875,-26.667c-0.625,-7.375 1.208,-14.541 2.5,-21.708c1.625,-9.125 3.666,-18.208 5.125,-27.333c2.708,-16.875 6.458,-21.459 23.375,-25.084c16.833,-3.583 33.833,-6.333 50.708,-9.833c29.875,-6.25 56.083,-19.25 78.458,-40.542c25.084,-23.833 52.875,-44.416 80.709,-64.958c41.708,-30.75 83.125,-61.958 125.166,-92.292c45.334,-32.625 92.792,-62.166 139.125,-93.375c16.292,-10.958 32.292,-22.25 47.375,-34.833c20.084,-16.708 43.667,-20.833 68.5,-16.917c23.375,3.709 37.334,19.584 43.75,41.459c4.375,14.916 7.417,30.25 7.25,46.125c-0.166,16.625 -4.125,32.125 -11.125,47.041c-10.875,23.042 -26.166,43.125 -41.708,63c-26.042,33.292 -53.583,65.25 -82.875,95.667c-39.458,41 -75.292,85 -108.792,130.917c-8.375,11.5 -13,24.333 -14.291,38.708c-2,22.25 -2.25,44.458 -1.125,66.708c0.708,13.875 4.625,26.459 13.916,37.5c9,10.709 18.125,21.25 27.75,31.334c20.709,21.666 41.917,42.791 62.417,64.625c31.208,33.166 62.417,66.291 92.167,100.791c18.583,21.667 36.166,44.167 55.25,65.375c13.125,14.584 28.125,27.334 43.708,39.292c27.417,21.083 56.458,39.75 85.875,57.833c8.375,5.125 15.542,11.584 20.583,19.875c7.584,12.542 6.292,19.959 -3.208,28.125Z"
  />
  <path
    class="fill"
    d="M1268.17,360.667c2.208,0.125 4.541,0.125 6.833,0.416c12.792,1.75 18.542,10.5 14.708,22.75c-4.833,15.542 -14.291,28.375 -24.666,40.584c-20.875,24.625 -42.625,48.5 -65.5,71.166c-38.75,38.375 -79.25,74.834 -125.209,104.667c-8.416,5.458 -17.416,9.375 -27.208,11.792c-6.542,1.625 -12.417,1.125 -18.25,-1.959c-29.875,-15.833 -26.5,-45.541 -11.875,-63c4.708,-5.625 10.875,-9.708 16.708,-14.125c26.5,-20.041 51.25,-42.125 75.875,-64.416c29.792,-26.959 58.584,-55.042 90.875,-79.084c16.584,-12.333 33.834,-23.333 54.667,-27.375c4.292,-0.833 8.583,-0.875 12.958,-1.458l0.084,-0l-0,0.042Z"
  />
</svg>
